Coordinates
version=1
nRows=19
nColumns=24
inDegrees=yes

Units are S.I. units (second, meters, Newtons, ...)
Angles are in degrees.

endheader
time	pelvis_tilt	pelvis_list	pelvis_rotation	pelvis_tx	pelvis_ty	pelvis_tz	hip_flexion_r	hip_adduction_r	hip_rotation_r	knee_angle_r	ankle_angle_r	subtalar_angle_r	mtp_angle_r	hip_flexion_l	hip_adduction_l	hip_rotation_l	knee_angle_l	ankle_angle_l	subtalar_angle_l	mtp_angle_l	lumbar_extension	lumbar_bending	lumbar_rotation
      5.86000000	      6.42426377	      6.37885664	      8.98166214	     -0.92347031	      0.87904248	      0.12740265	     19.61730294	     -5.97388826	     -4.78377405	     -7.11830180	      8.45258182	     -1.71548089	      0.00000000	    -23.60115227	      6.41610240	      9.00554445	    -11.83767303	     19.14269007	      0.64413928	      0.00000000	    -24.21130359	     -4.46380750	    -14.57939175
      5.87000000	      6.45347320	      6.27697330	      9.36570670	     -0.91015836	      0.87854121	      0.12773834	     19.38733632	     -5.88299011	     -5.66272212	     -8.24460271	      7.94323295	     -2.45856363	      0.00000000	    -23.68462930	      5.96912575	      8.63692198	    -13.30843291	     18.73406193	      1.45129108	      0.00000000	    -24.04328981	     -4.10449566	    -14.63370354
      5.88000000	      6.48177771	      6.12432642	      9.73392237	     -0.89660514	      0.87810742	      0.12811964	     19.04398487	     -5.70436140	     -6.29771973	     -9.20887467	      7.00716107	     -3.41011508	      0.00000000	    -23.68860315	      5.48198973	      8.28650145	    -14.89734349	     18.12719630	      2.09858801	      0.00000000	    -23.82024664	     -3.69451996	    -14.62448901
      5.89000000	      6.52667274	      5.90448141	     10.04616754	     -0.88290575	      0.87778441	      0.12858031	     18.64360936	     -5.41073356	     -6.66111749	    -10.08706940	      5.72117639	     -4.55180800	      0.00000000	    -23.60129495	      4.95993384	      7.92494803	    -16.63228826	     17.26620111	      2.54422280	      0.00000000	    -23.57438334	     -3.22424505	    -14.51419067
      5.90000000	      6.60058798	      5.60363255	     10.25563223	     -0.86918108	      0.87758498	      0.12914341	     18.28701788	     -4.99203500	     -6.81379052	    -11.04466028	      4.35164899	     -5.75957291	      0.00000000	    -23.39971066	      4.41887176	      7.52062883	    -18.55118130	     16.12115136	      2.69223221	      0.00000000	    -23.34034778	     -2.67911644	    -14.27627782
      5.91000000	      6.70713052	      5.23906012	     10.29919479	     -0.85552051	      0.87755255	      0.12984294	     18.02243419	     -4.45682026	     -6.70857614	    -12.16106099	      3.17323668	     -6.78129930	      0.00000000	    -23.07285490	      3.90764020	      7.03152417	    -20.66573529	     14.50153396	      2.61189375	      0.00000000	    -23.14258519	     -2.08518762	    -13.85643265
      5.92000000	      6.86888152	      4.81356885	     10.17055190	     -0.84204928	      0.87768085	      0.13065438	     17.91377771	     -3.83823464	     -6.60651827	    -13.60829566	      2.59124982	     -7.36852126	      0.00000000	    -22.60003997	      3.42624230	      6.38848590	    -23.03509397	     12.49114450	      2.27017791	      0.00000000	    -23.03451064	     -1.43370535	    -13.29142866
      5.93000000	      7.12393034	      4.31014232	      9.88346939	     -0.82882422	      0.87801467	      0.13155009	     17.86325753	     -3.11092582	     -6.50151666	    -15.30109832	      2.62858227	     -7.54527938	      0.00000000	    -21.98345460	      2.92011155	      5.49877588	    -25.71008821	     10.10506130	      1.90366656	      0.00000000	    -23.07476776	     -0.68475391	    -12.60452817
      5.94000000	      7.27721833	      3.81768496	      9.44146085	     -0.81589069	      0.87827290	      0.13250510	     18.03957013	     -2.38244528	     -6.22125251	    -17.20919406	      3.31512202	     -7.56166630	      0.00000000	    -21.06037030	      2.54217669	      4.57808939	    -28.62801960	      7.17830108	      1.01945426	      0.00000000	    -23.04813289	      0.00892645	    -11.82360290
      5.95000000	      7.47905470	      3.28343378	      8.93712643	     -0.80330320	      0.87868806	      0.13342842	     18.14751040	     -1.61168219	     -6.06131877	    -19.08760848	      4.47013055	     -7.19360201	      0.00000000	    -19.95323322	      2.12632201	      3.54475211	    -31.81932557	      3.90998458	      0.02633150	      0.00000000	    -23.14396783	      0.77185028	    -11.03243321
      5.96000000	      7.67110385	      2.70152672	      8.42976241	     -0.79108854	      0.87919537	      0.13429323	     18.14420080	     -0.79564905	     -5.95472657	    -20.74105552	      5.83345352	     -6.70461683	      0.00000000	    -18.60483495	      1.63151969	      2.44699948	    -35.26335889	      0.51942186	     -1.01548047	      0.00000000	    -23.29648539	      1.60910866	    -10.28997609
      5.97000000	      7.82955681	      2.04839635	      8.00486901	     -0.77923984	      0.87979589	      0.13510114	     17.96295906	      0.09665534	     -5.85064976	    -21.99349569	      7.15631105	     -6.37591693	      0.00000000	    -17.00900527	      0.99361785	      1.41167669	    -38.91644578	     -2.71468973	     -2.04313725	      0.00000000	    -23.45986839	      2.52495630	     -9.59208086
      5.98000000	      7.94036902	      1.34878646	      7.71371094	     -0.76779071	      0.88052309	      0.13579626	     17.59413122	      1.01467660	     -5.84490916	    -22.79024836	      8.32958753	     -6.14641435	      0.00000000	    -15.18759801	      0.23951975	      0.56595032	    -42.69703362	     -5.56628480	     -3.08261323	      0.00000000	    -23.62570692	      3.51131953	     -9.02427928
      5.99000000	      8.00353004	      0.62680156	      7.58641093	     -0.75669973	      0.88141062	      0.13639247	     17.03932405	      1.93311614	     -5.94230961	    -23.12995832	      9.30557658	     -6.02387204	      0.00000000	    -13.18522720	     -0.59687499	     -0.00811665	    -46.50387007	     -7.80462150	     -4.11991338	      0.00000000	    -23.77115739	      4.52480149	     -8.58709585
      6.00000000	      8.01180969	     -0.06891222	      7.61083359	     -0.74592224	      0.88247963	      0.13690923	     16.34109340	      2.80435881	     -6.12530514	    -23.07678474	     10.09884440	     -5.96662383	      0.00000000	    -11.04342747	     -1.42108677	     -0.26269779	    -50.22347211	     -9.31028237	     -5.17633912	      0.00000000	    -23.87229764	      5.49788972	     -8.29487298
      6.01000000	      7.96823633	     -0.69140857	      7.74293609	     -0.73539939	      0.88374915	      0.13739269	     15.54462651	      3.59014647	     -6.35276606	    -22.72501371	     10.73888002	     -5.95860858	      0.00000000	     -8.81367275	     -2.13941364	     -0.22387163	    -53.74649908	    -10.03242285	     -6.23498829	      0.00000000	    -23.91772296	      6.35963141	     -8.11672735
      6.02000000	      7.88462029	     -1.19847247	      7.91869700	     -0.72507891	      0.88524516	      0.13788895	     14.68420734	      4.25754998	     -6.57775895	    -22.17182911	     11.25350591	     -5.97956234	      0.00000000	     -6.55761333	     -2.66364858	      0.04740534	    -56.97200560	    -10.02617993	     -7.25895309	      0.00000000	    -23.91657338	      7.04728779	     -7.98230115
      6.03000000	      7.73556688	     -1.55744742	      8.05388651	     -0.71490636	      0.88693364	      0.13847079	     13.82480019	      4.78484576	     -6.70404081	    -21.50483446	     11.68323923	     -5.95812264	      0.00000000	     -4.29222714	     -2.93156492	      0.43641619	    -59.82379868	     -9.42658793	     -8.20873078	      0.00000000	    -23.83693101	      7.49819316	     -7.86183870
      6.04000000	      7.54922289	     -1.76690773	      8.07045759	     -0.70486531	      0.88880872	      0.13918637	     12.97571519	      5.17311979	     -6.71291921	    -20.80214205	     12.06661194	     -5.88673734	      0.00000000	     -2.08027947	     -2.94608225	      0.81237307	    -62.25533525	     -8.40857180	     -9.05278476	      0.00000000	    -23.73019834	      7.70573734	     -7.68674385
